# xmcd CD database file
#
# Track frame offsets:
#	150
#	11508
#	24398
#	38063
#	48855
#	68090
#	83590
#	100988
#	117448
#	132968
#
# Disc length: 1984 seconds
#
# Revision: 1
# Processed by: cddbd v1.4PL0 Copyright (c) Steve Scherf et al.
# Submitted via: CDex 1.40Release
#
DISCID=7407be0a
DTITLE=Tracy Byrd - The Best Of Tracy Byrd (20th Century Masters The Millennium Collection)
DYEAR=2001
DGENRE=Country
TTITLE0=Holdin' Heaven
TTITLE1=Lifestyles Of The Not So Rich And Famous
TTITLE2=Watermelon Crawl
TTITLE3=The First Step
TTITLE4=The Keeper Of The Stars
TTITLE5=Walking To Jerusalem
TTITLE6=Love Lessons
TTITLE7=Big Love
TTITLE8=(Don't Take Her) She's All I Got
TTITLE9=I'm From The Country
EXTD=YEAR: 2001 ID3G: 2
EXTT0=
EXTT1=
EXTT2=
EXTT3=
EXTT4=
EXTT5=
EXTT6=
EXTT7=
EXTT8=
EXTT9=
PLAYORDER=
